<svg xmlns="http://www.w3.org/2000/svg" width="92.041" height="61.16" viewBox="0 0 92.041 61.16">
  <g id="Group_203" data-name="Group 203" transform="translate(-118.015 -279.438)">
    <path id="Path_229" data-name="Path 229" d="M121.377,340.541v-6.133h4.2V285.627h-4.195v-6.135a3.225,3.225,0,0,1,.4-.047c1.966,0,3.931,0,5.9-.006a.821.821,0,0,1,.642.257q1.609,1.638,3.246,3.25a.754.754,0,0,1,.268.642c-.017.188,0,.381,0,.574q0,25.968.011,51.939a1.481,1.481,0,0,1-.482,1.186c-1.032.983-2.028,2.009-3.034,3.019a.765.765,0,0,1-.58.287c-2.036-.008-4.073,0-6.107-.008A1.937,1.937,0,0,1,121.377,340.541Z" transform="translate(3.837 0.001)" fill="#fff"/>
    <path id="Path_230" data-name="Path 230" d="M158.992,334.388h1.9a58.4,58.4,0,0,1,.056,6.152,2.684,2.684,0,0,1-.381.049c-1.218,0-2.437,0-3.655.009a.83.83,0,0,1-.64-.274c-1.077-1.088-2.161-2.173-3.253-3.244a.936.936,0,0,1-.293-.734q.01-26.341,0-52.68a.932.932,0,0,1,.3-.732c1.079-1.06,2.148-2.135,3.214-3.208a.754.754,0,0,1,.578-.287c1.287.015,2.576.007,3.863.009.084,0,.167.015.276.026v6.158h-1.961Z" transform="translate(39.613 0)" fill="#fff"/>
    <path id="Path_231" data-name="Path 231" d="M157.171,340.546V334.4h1.97V285.648h-1.9a60.857,60.857,0,0,1-.047-6.167c.124-.011.259-.034.392-.034,1.218,0,2.437.009,3.653-.009a.865.865,0,0,1,.677.3c1.051,1.064,2.107,2.126,3.178,3.171a.974.974,0,0,1,.315.777q-.013,6.475-.006,12.948,0,19.763.009,39.522a1.307,1.307,0,0,1-.422,1.051c-1.054,1.011-2.077,2.056-3.111,3.09a.771.771,0,0,1-.578.293c-1.3-.011-2.61-.006-3.916-.011A1.415,1.415,0,0,1,157.171,340.546Z" transform="translate(44.648 0)" fill="#fff"/>
    <path id="Path_232" data-name="Path 232" d="M123.983,340.531h-5.968V279.459h5.968Z" transform="translate(0 0.024)" fill="#fff"/>
    <path id="Path_233" data-name="Path 233" d="M141.439,340.532h-5.97V279.458h5.97Z" transform="translate(19.92 0.023)" fill="#fff"/>
    <path id="Path_234" data-name="Path 234" d="M152.9,340.55h-5.957c-.066-.225-.146-.45-.2-.679q-2.563-10.237-5.126-20.477-1.349-5.386-2.711-10.768a1.846,1.846,0,0,1,.013-.966q3.713-13.847,7.417-27.691c.045-.167.1-.328.156-.514h5.993c-.158.612-.308,1.2-.465,1.782q-3.527,13.166-7.062,26.331a2.248,2.248,0,0,0,0,1.173q3.058,12.157,6.1,24.319.886,3.54,1.773,7.077C152.849,340.253,152.864,340.372,152.9,340.55Z" transform="translate(23.768 0.019)" fill="#fff"/>
  </g>
</svg>
