<svg id="Group_203" data-name="Group 203" xmlns="http://www.w3.org/2000/svg" width="52.4" height="35" viewBox="0 0 52.4 35">
  <path id="Path_227" data-name="Path 227" d="M170.5,102.2V98.7h2.4V70.9h-2.4V67.4h3.6a.6.6,0,0,1,.4.1l1.8,1.8a.52.52,0,0,1,.2.4V99.5a.908.908,0,0,1-.3.7c-.6.6-1.2,1.1-1.7,1.7-.1.1-.2.2-.3.2h-3.5C170.6,102.2,170.6,102.2,170.5,102.2Z" transform="translate(-166.4 -67.4)" fill="#b1b3b1"/>
  <path id="Path_228" data-name="Path 228" d="M212.3,98.8h1.1a20.3,20.3,0,0,1,0,3.5h-2.3a.52.52,0,0,1-.4-.2c-.6-.6-1.2-1.2-1.9-1.8a.52.52,0,0,1-.2-.4v-30c0-.2,0-.3.2-.4l1.8-1.8c.1-.1.2-.2.3-.2h2.4V71h-1.1C212.3,80.2,212.3,89.4,212.3,98.8Z" transform="translate(-166.4 -67.4)" fill="#b1b3b1"/>
  <path id="Path_229" data-name="Path 229" d="M214.1,102.2V98.7h1.1V71h-1.1a20.416,20.416,0,0,1,0-3.5h2.3a.52.52,0,0,1,.4.2l1.8,1.8a.758.758,0,0,1,.2.4V99.8a1.421,1.421,0,0,1-.2.6l-1.8,1.8c-.1.1-.2.2-.3.2h-2.2C214.2,102.2,214.2,102.2,214.1,102.2Z" transform="translate(-166.4 -67.4)" fill="#b1b3b1"/>
  <path id="Path_230" data-name="Path 230" d="M169.8,102.2h-3.4V67.5h3.4Z" transform="translate(-166.4 -67.4)" fill="#b1b3b1"/>
  <path id="Path_231" data-name="Path 231" d="M191.1,102.2h-3.4V67.5h3.4Z" transform="translate(-166.4 -67.4)" fill="#b1b3b1"/>
  <path id="Path_232" data-name="Path 232" d="M199.8,102.2h-3.4c0-.1-.1-.3-.1-.4-1-3.9-1.9-7.8-2.9-11.6-.5-2-1-4.1-1.5-6.1v-.5c1.4-5.3,2.8-10.5,4.2-15.8,0-.1.1-.2.1-.3h3.4c-.1.3-.2.7-.3,1-1.3,5-2.7,10-4,15a.846.846,0,0,0,0,.7c1.2,4.6,2.3,9.2,3.5,13.8.3,1.3.7,2.7,1,4Z" transform="translate(-166.4 -67.4)" fill="#b1b3b1"/>
</svg>
