<?xml version="1.0" encoding="utf-8"?>
<!-- Generator: Adobe Illustrator 16.0.0, SVG Export Plug-In . SVG Version: 6.00 Build 0)  -->
<!DOCTYPE svg PUBLIC "-//W3C//DTD SVG 1.1//EN" "http://www.w3.org/Graphics/SVG/1.1/DTD/svg11.dtd">
<svg version="1.1" id="Layer_1" xmlns="http://www.w3.org/2000/svg" xmlns:xlink="http://www.w3.org/1999/xlink" x="0px" y="0px"
	 width="411.802px" height="412.54px" viewBox="0 0 411.802 412.54" enable-background="new 0 0 411.802 412.54"
	 xml:space="preserve">
<g>
	<path fill="#969696" d="M206.269,11.665c107.3,0,194.6,87.297,194.6,194.601c0,107.303-87.297,194.6-194.6,194.6
		c-36.977,0-72.957-10.426-104.06-30.152l-4.68-2.969l-5.254,1.75l-73.828,24.598l24.594-73.831l1.75-5.254l-2.969-4.68
		C22.095,279.233,11.67,243.253,11.67,206.267c0-107.3,87.297-194.6,194.6-194.6 M206.27,0.003C92.34,0.003,0,92.343,0,206.273
		c0,40.543,11.727,78.398,31.965,110.311L0,412.54l95.957-31.966c31.91,20.242,69.766,31.966,110.31,31.966
		c113.93,0,206.27-92.341,206.27-206.271S320.197,0,206.267,0L206.27,0.003z"/>
	<path fill="#969696" d="M150.849,206.268c0,9.664-7.832,17.5-17.5,17.5c-9.664,0-17.5-7.836-17.5-17.5s7.836-17.5,17.5-17.5
		C143.017,188.768,150.849,196.604,150.849,206.268"/>
	<path fill="#969696" d="M223.769,206.268c0,9.664-7.836,17.5-17.5,17.5s-17.5-7.836-17.5-17.5s7.836-17.5,17.5-17.5
		S223.769,196.604,223.769,206.268"/>
	<path fill="#969696" d="M296.688,206.268c0,9.664-7.836,17.5-17.5,17.5c-9.668,0-17.5-7.836-17.5-17.5s7.832-17.5,17.5-17.5
		C288.853,188.768,296.688,196.604,296.688,206.268"/>
</g>
</svg>
