<?xml version="1.0" encoding="utf-8"?>
<!-- Generator: Adobe Illustrator 16.0.0, SVG Export Plug-In . SVG Version: 6.00 Build 0)  -->
<!DOCTYPE svg PUBLIC "-//W3C//DTD SVG 1.1//EN" "http://www.w3.org/Graphics/SVG/1.1/DTD/svg11.dtd">
<svg version="1.1" id="Layer_1" xmlns="http://www.w3.org/2000/svg" xmlns:xlink="http://www.w3.org/1999/xlink" x="0px" y="0px"
	 width="478.416px" height="448.438px" viewBox="0 0 478.416 448.438" enable-background="new 0 0 478.416 448.438"
	 xml:space="preserve">
<g>
	<path fill="#969696" d="M434.66,0.009H43.75C19.625,0.009,0,19.634,0,43.759v254.54c0,24.125,19.625,43.75,43.75,43.75h118.21
		L230.124,443.6c2.031,3.023,5.438,4.84,9.082,4.84h0.023c3.652-0.008,7.059-1.836,9.082-4.879l67.574-101.52h118.78
		c24.125,0,43.75-19.625,43.75-43.75V43.75c0-24.125-19.63-43.75-43.75-43.75L434.66,0.009z M456.535,298.299
		c0,12.063-9.813,21.875-21.875,21.875h-124.64c-3.66,0-7.078,1.828-9.105,4.879l-61.754,92.773l-62.293-92.81
		c-2.031-3.027-5.438-4.844-9.082-4.844H43.746c-12.062,0-21.875-9.813-21.875-21.875V43.759c0-12.063,9.813-21.875,21.875-21.875
		h390.91c12.063,0,21.875,9.813,21.875,21.875L456.535,298.299z"/>
	<path fill="#969696" d="M396.32,226.229H82.08c-6.039,0-10.938,4.898-10.938,10.938s4.898,10.938,10.938,10.938h314.24
		c6.039,0,10.938-4.897,10.938-10.938c0.004-6.039-4.895-10.938-10.934-10.938H396.32z"/>
	<path fill="#969696" d="M396.32,160.088H82.08c-6.039,0-10.938,4.898-10.938,10.938c0,6.039,4.898,10.938,10.938,10.938h314.24
		c6.039,0,10.938-4.898,10.938-10.938c0.004-6.039-4.895-10.938-10.934-10.938H396.32z"/>
	<path fill="#969696" d="M82.08,115.828h183.8c6.039,0,10.938-4.898,10.938-10.938s-4.898-10.938-10.938-10.938H82.08
		c-6.039,0-10.938,4.898-10.938,10.938C71.142,110.93,76.041,115.828,82.08,115.828L82.08,115.828z"/>
</g>
</svg>
