<svg id="Layer_1" data-name="Layer 1" xmlns="http://www.w3.org/2000/svg" viewBox="0 0 169.27 185.55"><defs><style>.cls-1{fill:#8c968e;}.cls-2{fill:#231f20;}.cls-3{fill:#f2f2f2;}.cls-3,.cls-4{stroke:#d1d1d1;stroke-miterlimit:10;}.cls-4{fill:#d1d1d1;}</style></defs><path class="cls-1" d="M186.8,35.39H174.74l5.2-8.14h-1.06l-5.15,8.14H167l-5.18-8.14h-4.72l5.18,8.14H150.65l-3.56-8.14h-1.67l-3.57,8.14H131.31c-1.91-4.84-6.81-8.14-12.86-8.14h-9.87v8.14H101V27.25h-.88v8.14H89.78l-7.26-8.14H79.79v8.14H72.71V27.25h-.87v8.14H55.51V27.25H51.19v8.14H31.89a3.9,3.9,0,0,1-1.5-3c0-2.65,2.73-4.65,6.39-4.65,4,0,7,2.44,7,5.77h.8c0-3.81-3.67-6.64-8.42-6.64C30.9,26.88,27,29.79,27,34a6.44,6.44,0,0,0,.15,1.36H17.53v9.17H40.37a3.82,3.82,0,0,1,1.64,3c0,2.65-2.8,4.5-6.68,4.5-4.5,0-8-2.62-8-6.14h-.79C26.55,50,30.76,53,36,53c5.59,0,9.51-2.91,9.51-7.23a6,6,0,0,0-.13-1.23h6C52.25,49.72,56.66,53,62.52,53s9.61-3.34,10.13-8.46h7.14v8.09h.88V44.56H92.48l7.24,8.09H101V44.56h7.62v8.09h9.87c6,0,10.92-3.28,12.84-8.09h6.54l-3.55,8.09h1l3.16-7.22H150.5l3.12,7.22h4.57l-3.53-8.09h11.7v8.09h4.32V44.56H186.8Zm-123,16.25c-4.55,0-7.65-2.73-8.19-7.08H71.76a7.54,7.54,0,0,1-8,7.08M80.67,35.39v-4l3.62,4ZM100.08,47,98,44.56h2.13ZM112.9,28h4.9c4.58,0,8,2.83,9.29,7.42H112.9Zm4.9,24h-4.9V44.56h14.18c-1.33,4.56-4.72,7.37-9.28,7.37m26.68-20.29,1.64,3.75h-3.28Zm5.69,13.06H138.78l.06-.14h11.27Z" transform="translate(-17.53 -8.72)"/><path class="cls-2" d="M164.31,36.31a1.08,1.08,0,0,0-.42.45l-.47.67a12,12,0,0,1-1.06,1.43,13.53,13.53,0,0,1-1.79,1.62v0a1.85,1.85,0,0,1,0-.65c.05-.47.12-.94.19-1.41s.11-.72.16-1.08a1,1,0,0,0-.17-.76l-.23-.19h-.2a.78.78,0,0,0-.63.21,1.8,1.8,0,0,0-.55.9c-.12.56-.21.89-.56,1.14-3.66,2.64-7,3.93-10.59,4.07A7.79,7.79,0,0,1,143,41.33a3.93,3.93,0,0,1-1.74-2.4,7,7,0,0,1-.13-.8c0-.16,0-.32-.07-.47-.11-.74-.51-.88-.81-.86h-.17v0a1.12,1.12,0,0,0-.86-.58,3.57,3.57,0,0,0-3.33,1.33,19.7,19.7,0,0,1-3.2,3.33A9.8,9.8,0,0,1,128,43.06a4.27,4.27,0,0,1-4.49-2,7.4,7.4,0,0,1-1.06-3.69,18.43,18.43,0,0,1,.75-6.11A210.53,210.53,0,0,1,130.3,9.86a2.29,2.29,0,0,0,.12-.37l.23-.75-.61,0a1.17,1.17,0,0,0-1.35.84L128,11.39c-.66,1.79-1.32,3.59-1.94,5.39l-.45,1.32a175.3,175.3,0,0,1-6.9,18l-.36.75a1.49,1.49,0,0,0-.58-.57,2.5,2.5,0,0,0-1.9-.12,3.85,3.85,0,0,0-1.61,1c-.13.12-.25.24-.39.35a19.05,19.05,0,0,1-6.13,3.68,10.45,10.45,0,0,1-6.64.22,13.56,13.56,0,0,1-4-2.29c-1-.77-2-1.57-3.06-2.37L93.1,36A2.11,2.11,0,0,0,91,35.66a8.2,8.2,0,0,0-1.72.76,18,18,0,0,0-4.17,3.88L85.9,36l-.54,0c-.84,0-1.25.12-1.42,1.13,0,.24-.08.48-.14.71a.26.26,0,0,1-.06.14,14.54,14.54,0,0,1-1.1,1A19.78,19.78,0,0,1,76,42.16a12.54,12.54,0,0,1-5.79.4,5.17,5.17,0,0,1-3.82-2.38,7.79,7.79,0,0,1-.65-1.64c-.07-.24-.14-.47-.22-.7A1,1,0,0,0,65,37.2a.85.85,0,0,0-.77.16,7.73,7.73,0,0,0-.85.66l-.64.6c-.35.33-.71.66-1.09,1a6.56,6.56,0,0,1-1.47.89l-.09,0a1.15,1.15,0,0,0,0-.14,4.14,4.14,0,0,1,0-1c0-.35.08-.69.13-1s.08-.56.11-.84a.86.86,0,0,0-1.08-1.1h-.33l-.1.31c-.07.23-.14.47-.16.5a3.54,3.54,0,0,1-.59,0,84,84,0,0,0-9.44.62A29.35,29.35,0,0,0,43,39.08c-.38-.71-.74-1.44-1.09-2.15,0,0,0-.1,0-.15v-.12a.45.45,0,0,1,.7-.53.8.8,0,0,0,.73,0,.65.65,0,0,0,.26-.53,1.18,1.18,0,0,0-.34-.74.56.56,0,0,0-.48-.21h-.08a2.77,2.77,0,0,0-2.19,1.11,2.22,2.22,0,0,0-.23,2.07,9.88,9.88,0,0,0,.41.94c.18.36.37.71.56,1.07l0,.07-.11.06a4.65,4.65,0,0,0-2.08,2,2.08,2.08,0,0,0,.76,2.87,3,3,0,0,0,2,.22,2.89,2.89,0,0,0,1.93-1.27A2.82,2.82,0,0,0,44,41.47c-.11-.38-.26-.75-.41-1.13l0-.1A23.85,23.85,0,0,1,49,39.07c1.51-.15,3.51-.34,5.5-.43,1,0,2,0,3,0h.86v0l0,.49a9,9,0,0,0,0,1.38,1.55,1.55,0,0,0,.45,1.13,1.62,1.62,0,0,0,1.23.21,1.44,1.44,0,0,0,.51-.15l.59-.33a19.94,19.94,0,0,0,1.77-1,9.3,9.3,0,0,0,1.11-.9A6.18,6.18,0,0,0,69,43.91a12.7,12.7,0,0,0,4.9.05,22.45,22.45,0,0,0,9.55-4.05V40c-.1.69-.2,1.39-.26,2.09a1.14,1.14,0,0,0,.51,1,1.05,1.05,0,0,0,1-.13,1.92,1.92,0,0,0,.5-.46l1.17-1.27c.93-1,1.86-2,2.8-3a6.42,6.42,0,0,1,1.25-.93,1.24,1.24,0,0,1,1.65.13c1.58,1.31,3.19,2.58,4.79,3.77a11,11,0,0,0,8.54,2,17.41,17.41,0,0,0,7.5-3.24l0,0a7.06,7.06,0,0,0-.09,1.58,1.79,1.79,0,0,0,.61,1.47A1.76,1.76,0,0,0,115,43a6.29,6.29,0,0,0,2.76-2.28,26.52,26.52,0,0,0,3-5.08,13.32,13.32,0,0,0,.33,4.25A5.79,5.79,0,0,0,128,44.39a12.29,12.29,0,0,0,5.48-2.58c.5-.38,1-.78,1.4-1.18,0,.07,0,.15,0,.22a1.31,1.31,0,0,0,.53,1.06,1.15,1.15,0,0,0,1.06.07,7.11,7.11,0,0,0,2-1,9.86,9.86,0,0,0,1.22-1.11l.15.38a6.62,6.62,0,0,0,4.66,3.57,11.81,11.81,0,0,0,5.59-.06,23.31,23.31,0,0,0,8.43-3.6l.24-.16a6.69,6.69,0,0,0,.08.89,1.29,1.29,0,0,0,.57,1,1.23,1.23,0,0,0,1.08,0,7.32,7.32,0,0,0,1.65-.92c.14-.11.28-.22.41-.34l-.93,2.64c-1.12,3.18-2.29,6.48-3.49,9.7a73.53,73.53,0,0,1-5.43,11.83,25,25,0,0,1-2.37,3.27,1.42,1.42,0,0,1-2,.4,3.68,3.68,0,0,1-1.14-1,10,10,0,0,1-1.74-4.85,19,19,0,0,1,0-5.22,14.9,14.9,0,0,1,2.33-6.72,7.86,7.86,0,0,1,4.57-3.4,6.52,6.52,0,0,1,3.35-.09l.53.14.06-.55a1.11,1.11,0,0,0-.22-.86,1.28,1.28,0,0,0-1-.32,9.82,9.82,0,0,0-5.94,1.71,13.34,13.34,0,0,0-5,7.93,19.93,19.93,0,0,0-.35,8.37,11.89,11.89,0,0,0,1.63,4.63,4.09,4.09,0,0,0,2.92,1.85l.37,0A3.65,3.65,0,0,0,151.25,69a16.88,16.88,0,0,0,2.09-2.45,44.31,44.31,0,0,0,3.95-7.38c2.39-5.3,4.33-10.73,5.91-15.35.58-1.68,1.13-3.37,1.68-5.06l.52-1.6a1.72,1.72,0,0,0,.07-.5l.06-.62-.73.13a1.38,1.38,0,0,0-.49.13m-27.43,4.27a1.56,1.56,0,0,1-.15.09.33.33,0,0,1,0-.2,8,8,0,0,1,.3-1.92,1.35,1.35,0,0,1,.85-.94,1.12,1.12,0,0,1,.32,0,1.77,1.77,0,0,1,1.06.42,11.63,11.63,0,0,1-.74,1,10.81,10.81,0,0,1-1.61,1.57M115,41.6l-.2.11,0-.23a5.78,5.78,0,0,1,.48-3.13c.24-.5.51-.8.82-.87a.63.63,0,0,1,.19,0,1.74,1.74,0,0,1,1,.4,1,1,0,0,0,.56.17,15.64,15.64,0,0,1-1.61,2.52A5.39,5.39,0,0,1,115,41.6M41.91,41a4.37,4.37,0,0,1,.52,1.69.79.79,0,0,1-.57.82,1,1,0,0,1-1-.12.75.75,0,0,1-.23-.88A2.34,2.34,0,0,1,41.91,41" transform="translate(-17.53 -8.72)"/><line class="cls-3" x1="84.63" y1="62.13" x2="84.63" y2="180.66"/><circle class="cls-4" cx="84.57" cy="181.96" r="3.09"/></svg>