<svg version="1.1" id="Layer_1" xmlns="http://www.w3.org/2000/svg" xmlns:xlink="http://www.w3.org/1999/xlink" x="0px" y="0px"

                width="24.85px" height="19.021px" viewBox="0 0 24.85 19.021" enable-background="new 0 0 24.85 19.021" xml:space="preserve">

<path fill="#969696" d="M24.281,0.068h-2.042h-5.795H15.97h-1.568H8.407H8.133H0.571c-0.258,0-0.467,0.209-0.467,0.466

                C0.104,0.792,0.313,1,0.571,1h7.563h0.274h5.994h1.568h0.474h5.795h2.042c0.258,0,0.466-0.208,0.466-0.466

                C24.746,0.277,24.538,0.068,24.281,0.068z"/>

<path fill="#969696" d="M24.281,18.02h-2.042h-5.795H15.97h-1.568H8.407H8.133H0.571c-0.258,0-0.467,0.209-0.467,0.467

                s0.209,0.467,0.467,0.467h7.563h0.274h5.994h1.568h0.474h5.795h2.042c0.258,0,0.466-0.209,0.466-0.467S24.538,18.02,24.281,18.02z"

                />

<path fill="#969696" d="M24.281,12.143h-2.043h-5.795H15.97h-1.568H8.408H8.134H0.572c-0.258,0-0.467,0.209-0.467,0.467

                s0.209,0.465,0.467,0.465h7.563h0.274h5.993h1.568h0.473h5.795h2.043c0.258,0,0.465-0.207,0.465-0.465S24.538,12.143,24.281,12.143z

                "/>

<path fill="#969696" d="M24.281,6.144h-2.042h-5.795H15.97h-1.568H8.407H8.133H0.571c-0.258,0-0.467,0.209-0.467,0.467

                s0.209,0.466,0.467,0.466h7.563h0.274h5.994h1.568h0.474h5.795h2.042c0.258,0,0.466-0.208,0.466-0.466S24.538,6.144,24.281,6.144z"

                />

</svg>