<svg xmlns="http://www.w3.org/2000/svg" width="19.367" height="19.021" viewBox="0 0 19.367 19.021">
  <g id="Group_88" data-name="Group 88" transform="translate(0 -2.471)">
    <g id="Group_87" data-name="Group 87" transform="translate(0 2.471)">
      <path id="Path_91" data-name="Path 91" d="M3.115,2.471A2.265,2.265,0,1,0,5.379,4.736,2.267,2.267,0,0,0,3.115,2.471Z" transform="translate(-0.79 -2.471)" fill="#fff"/>
      <path id="Path_92" data-name="Path 92" d="M107.634,2.471A2.265,2.265,0,1,0,109.9,4.736,2.267,2.267,0,0,0,107.634,2.471Z" transform="translate(-97.98 -2.471)" fill="#fff"/>
      <path id="Path_93" data-name="Path 93" d="M213.844,7a2.265,2.265,0,1,0-2.265-2.265A2.267,2.267,0,0,0,213.844,7Z" transform="translate(-196.741 -2.471)" fill="#fff"/>
      <path id="Path_94" data-name="Path 94" d="M2.265,110.479A2.265,2.265,0,1,0,0,108.214,2.267,2.267,0,0,0,2.265,110.479Z" transform="translate(0 -98.692)" fill="#fff"/>
      <path id="Path_95" data-name="Path 95" d="M106.79,110.479a2.265,2.265,0,1,0-2.265-2.265A2.267,2.267,0,0,0,106.79,110.479Z" transform="translate(-97.195 -98.692)" fill="#fff"/>
      <path id="Path_96" data-name="Path 96" d="M213,110.479a2.265,2.265,0,1,0-2.266-2.265A2.267,2.267,0,0,0,213,110.479Z" transform="translate(-195.954 -98.692)" fill="#fff"/>
      <path id="Path_97" data-name="Path 97" d="M3,209.108a2.265,2.265,0,1,0,2.265,2.265A2.267,2.267,0,0,0,3,209.108Z" transform="translate(-0.687 -194.617)" fill="#fff"/>
      <path id="Path_98" data-name="Path 98" d="M107.529,209.108a2.265,2.265,0,1,0,2.265,2.265A2.267,2.267,0,0,0,107.529,209.108Z" transform="translate(-97.882 -194.617)" fill="#fff"/>
    </g>
  </g>
</svg>
