<svg xmlns="http://www.w3.org/2000/svg" width="261.02" height="126.479" viewBox="0 0 261.02 126.479">
  <g id="Group_86" data-name="Group 86" transform="translate(-1061.151 -73.178)" style="isolation: isolate">
    <path id="Path_90" data-name="Path 90" d="M1047.319,139.709a8.566,8.566,0,0,1,1.076,3.5,1.6,1.6,0,0,1-1.165,1.677,1.983,1.983,0,0,1-2.128-.236,1.554,1.554,0,0,1-.478-1.814,4.885,4.885,0,0,1,2.694-3.126m150.54,1.194a3,3,0,0,1-.4.234,3.33,3.33,0,0,1-.082-.474,11.864,11.864,0,0,1,.977-6.444c.487-1.032,1.06-1.639,1.7-1.8a1.474,1.474,0,0,1,.39-.048,3.534,3.534,0,0,1,1.98.826,2.206,2.206,0,0,0,1.156.35,32.643,32.643,0,0,1-3.322,5.188,10.693,10.693,0,0,1-2.4,2.17m45.1-2.094a1.225,1.225,0,0,1-.312.179.624.624,0,0,1-.072-.4,16.7,16.7,0,0,1,.632-3.956,2.745,2.745,0,0,1,1.74-1.936,2.274,2.274,0,0,1,.655-.095,3.624,3.624,0,0,1,2.182.88,24.44,24.44,0,0,1-1.529,2.094,22.263,22.263,0,0,1-3.3,3.231m56.489-8.8a2.279,2.279,0,0,0-.855.927c-.331.457-.647.923-.962,1.388a29.233,29.233,0,0,1-2.191,2.947,27.574,27.574,0,0,1-3.7,3.322l-.009-.046a4.427,4.427,0,0,1-.08-1.338c.12-.971.266-1.938.411-2.907.112-.741.223-1.485.326-2.233a2.076,2.076,0,0,0-.366-1.557l-.453-.388-.427-.019a1.655,1.655,0,0,0-1.285.432,3.69,3.69,0,0,0-1.129,1.858c-.259,1.15-.442,1.828-1.169,2.353-7.541,5.434-14.467,8.1-21.8,8.379a16.081,16.081,0,0,1-10.21-2.778,8.2,8.2,0,0,1-3.579-4.929c-.124-.548-.2-1.106-.269-1.664-.04-.324-.082-.647-.133-.971-.242-1.514-1.049-1.8-1.677-1.759l-.35.019a.144.144,0,0,0-.015-.036,2.317,2.317,0,0,0-1.77-1.2,7.315,7.315,0,0,0-6.858,2.732,39.636,39.636,0,0,1-6.606,6.861c-3.5,2.692-6.464,4.084-9.6,4.508-4.059.533-7.078-.763-9.228-4.021a14.922,14.922,0,0,1-2.182-7.589,37.742,37.742,0,0,1,1.54-12.588,430.489,430.489,0,0,1,14.583-44.19c.1-.244.171-.5.247-.756l.476-1.542-1.266-.046a2.415,2.415,0,0,0-2.78,1.74l-1.378,3.76c-1.357,3.7-2.715,7.393-3.994,11.118l-.929,2.715c-4.215,12.312-8.575,25.043-14.22,37.018-.246.522-.489,1.032-.733,1.536a2.931,2.931,0,0,0-1.2-1.163,5.123,5.123,0,0,0-3.916-.249,7.851,7.851,0,0,0-3.318,2.136c-.255.242-.516.482-.786.712a39.814,39.814,0,0,1-12.63,7.6,21.463,21.463,0,0,1-13.67.442c-3.052-.918-5.58-2.681-8.333-4.723-2.138-1.578-4.221-3.229-6.3-4.878l-1.9-1.5a4.363,4.363,0,0,0-4.268-.754,16.965,16.965,0,0,0-3.528,1.55,37.025,37.025,0,0,0-8.592,8.011l1.557-8.914-1.112-.038c-1.717-.053-2.566.24-2.917,2.332-.08.489-.16.977-.282,1.456a.873.873,0,0,1-.126.3,29.715,29.715,0,0,1-2.279,1.967,40.75,40.75,0,0,1-13.586,6.73,25.939,25.939,0,0,1-11.933.813c-3.794-.706-6.37-2.3-7.878-4.9a16.324,16.324,0,0,1-1.323-3.389c-.149-.484-.3-.969-.463-1.443a1.972,1.972,0,0,0-1.125-1.312,1.785,1.785,0,0,0-1.586.331,16.825,16.825,0,0,0-1.753,1.365c-.449.4-.887.811-1.323,1.222-.727.682-1.449,1.367-2.231,1.98a13.85,13.85,0,0,1-3.039,1.841c-.074.032-.135.053-.175.072a2.192,2.192,0,0,1-.057-.284,8.977,8.977,0,0,1,.006-2.05c.068-.716.167-1.43.266-2.142.078-.579.158-1.156.223-1.736a2.11,2.11,0,0,0-.392-1.786,2.193,2.193,0,0,0-1.833-.491l-.667.04-.2.638c-.149.47-.3.956-.343,1.028a6.184,6.184,0,0,1-1.219.065,173.926,173.926,0,0,0-19.434,1.287,61.6,61.6,0,0,0-11.6,2.494c-.784-1.47-1.521-2.959-2.237-4.432a1.708,1.708,0,0,1-.015-.3l-.008-.255a.928.928,0,0,1,1.432-1.089,1.647,1.647,0,0,0,1.51-.088,1.327,1.327,0,0,0,.539-1.1,2.355,2.355,0,0,0-.7-1.5,1.156,1.156,0,0,0-1-.451c-.059,0-.114.006-.154,0a5.71,5.71,0,0,0-4.51,2.3,4.514,4.514,0,0,0-.468,4.253,18.452,18.452,0,0,0,.838,1.944c.369.733.758,1.456,1.158,2.195l.082.152-.247.131a9.564,9.564,0,0,0-4.274,4.049c-1.15,2.311-.466,4.91,1.559,5.917a6.17,6.17,0,0,0,4.2.442,5.983,5.983,0,0,0,3.994-2.614,5.823,5.823,0,0,0,.436-4.634,21.633,21.633,0,0,0-.847-2.332c-.027-.065-.055-.131-.08-.2a49.381,49.381,0,0,1,11.246-2.412c3.122-.31,7.231-.689,11.339-.883,2.064-.093,4.1-.072,6.256-.046q.887.009,1.782.017c0,.038-.006.076-.006.114l-.059,1a19.643,19.643,0,0,0-.042,2.844,3.183,3.183,0,0,0,.916,2.328,3.258,3.258,0,0,0,2.538.426,2.808,2.808,0,0,0,1.057-.305l1.213-.67c1.214-.664,2.469-1.348,3.648-2.138a20,20,0,0,0,2.281-1.862c1.443,4.862,4.859,7.941,10.165,9.15a25.948,25.948,0,0,0,10.088.091,46.119,46.119,0,0,0,19.674-8.331l-.021.158c-.2,1.432-.4,2.869-.537,4.305a2.328,2.328,0,0,0,1.036,2.022,2.212,2.212,0,0,0,2.062-.27,4.077,4.077,0,0,0,1.041-.942l2.418-2.631c1.909-2.081,3.817-4.162,5.768-6.2a12.528,12.528,0,0,1,2.557-1.925,2.567,2.567,0,0,1,3.4.259c3.259,2.709,6.578,5.325,9.866,7.779a22.688,22.688,0,0,0,17.595,4.206c5.169-.784,10.077-2.909,15.447-6.688.038-.027.076-.053.111-.078a15.206,15.206,0,0,0-.189,3.254,3.734,3.734,0,0,0,1.253,3.029,3.608,3.608,0,0,0,3.193-.015,13.049,13.049,0,0,0,5.7-4.7,55.945,55.945,0,0,0,6.214-10.465,27.591,27.591,0,0,0,.676,8.758c1.717,6.875,7.318,10.543,14.29,9.374a25.384,25.384,0,0,0,11.3-5.323c1.018-.781,1.963-1.616,2.875-2.433,0,.152.015.305.027.459a2.693,2.693,0,0,0,1.077,2.18,2.418,2.418,0,0,0,2.206.147,15.373,15.373,0,0,0,4.038-2.02,20.855,20.855,0,0,0,2.528-2.277c.093.259.194.514.307.76,1.7,3.674,4.754,6.014,9.607,7.362,4.074,1.131,8.1.577,11.5-.118a47.949,47.949,0,0,0,17.367-7.415c.164-.112.324-.221.486-.335a17.552,17.552,0,0,0,.179,1.824,2.607,2.607,0,0,0,1.182,1.986,2.49,2.49,0,0,0,2.218.019,14.246,14.246,0,0,0,3.391-1.9q.436-.335.849-.693-.961,2.714-1.917,5.428c-2.313,6.566-4.708,13.355-7.181,19.983a151.334,151.334,0,0,1-11.2,24.382,53.09,53.09,0,0,1-4.878,6.736,2.911,2.911,0,0,1-4.131.813,7.5,7.5,0,0,1-2.357-2.01c-2.3-3.01-3.082-6.585-3.585-10a38.688,38.688,0,0,1,0-10.753c.777-5.841,2.3-10.239,4.794-13.841,2.612-3.775,5.694-6.064,9.416-7a13.415,13.415,0,0,1,6.894-.2l1.108.3.108-1.142a2.241,2.241,0,0,0-.451-1.769,2.665,2.665,0,0,0-2.037-.664c-4.942.036-8.944,1.15-12.225,3.539-5.188,3.773-8.588,9.11-10.4,16.318a41.479,41.479,0,0,0-.71,17.251,24.58,24.58,0,0,0,3.356,9.525,8.422,8.422,0,0,0,6.012,3.819,7.1,7.1,0,0,0,.76.04,7.544,7.544,0,0,0,5.31-2.281,36.476,36.476,0,0,0,4.3-5.055,91.81,91.81,0,0,0,8.131-15.2c4.918-10.9,8.914-22.1,12.175-31.613,1.186-3.461,2.323-6.941,3.463-10.42l1.076-3.288a3.785,3.785,0,0,0,.131-1.041l.12-1.283-1.508.274a2.978,2.978,0,0,0-1,.265" transform="translate(20.209)" fill="#fff"/>
  </g>
</svg>
