<svg xmlns="http://www.w3.org/2000/svg" width="131.288" height="34.947" viewBox="0 0 131.288 34.947">
  <g id="Group_202" data-name="Group 202" transform="translate(0 0)">
    <path id="Path_224" data-name="Path 224" d="M101.4,451.366l15.187,33.407h-4.6l-3.734-8.232H94.6l-3.692,8.232h-4.57Zm-.013,10.04L96.243,472.88H106.59Z" transform="translate(-86.338 -451.316)" fill="#fff"/>
    <path id="Path_225" data-name="Path 225" d="M107.844,452.377h4.639l10.1,22.783,10.176-22.783h4.677l-14.911,33.2Z" transform="translate(-80.429 -451.039)" fill="#fff"/>
    <path id="Path_226" data-name="Path 226" d="M134.152,452.337H138.5v32.169h-4.343Z" transform="translate(-73.201 -451.049)" fill="#fff"/>
    <path id="Path_227" data-name="Path 227" d="M155.641,451.366l15.187,33.407h-4.6l-3.732-8.232H148.841l-3.692,8.232h-4.57Zm-.013,10.04-5.146,11.474h10.348Z" transform="translate(-71.436 -451.316)" fill="#fff"/>
    <path id="Path_228" data-name="Path 228" d="M167.224,451.327l23.787,24.45V452.615H195.4v33.66l-23.785-24.341v22.851h-4.394Z" transform="translate(-64.115 -451.327)" fill="#fff"/>
  </g>
</svg>
