<svg xmlns="http://www.w3.org/2000/svg" width="86.989" height="92" viewBox="0 0 86.989 92">
  <path id="Path_242" data-name="Path 242" d="M543.609,447.23c.506.333.783.424.915.615q4.193,6.011,8.351,12.048a5.51,5.51,0,0,1,.457,1.026c-.212,1.088-1.036,1.447-1.708,1.925q-5.147,3.662-10.319,7.291-8.049,5.685-16.1,11.376c-.615.434-1.2.912-1.863,1.421a14.65,14.65,0,0,0,2.547,4.036,32.719,32.719,0,0,0,2.847,3.827,7.494,7.494,0,0,0,2.465-1.442q10.27-7.143,20.527-14.3c.207-.145.4-.313.618-.437a1.136,1.136,0,0,1,1.4.15,5.377,5.377,0,0,1,.793.974q3.632,5.174,7.247,10.355a7.5,7.5,0,0,1,.553.842,1.483,1.483,0,0,1-.431,2.023c-.786.633-1.623,1.2-2.447,1.788q-9.263,6.6-18.53,13.19c-.68.486-1.331,1.01-1.969,1.5a49.785,49.785,0,0,0,6.059,8.849c.53-.313,1.111-.612,1.643-.982q12.781-8.844,25.55-17.7c1.1-.762,2.227-1.488,3.245-2.168,1.248.158,1.664,1.049,2.176,1.791,1.912,2.775,3.8,5.568,5.7,8.353.38.558.778,1.1,1.142,1.669,1.1,1.7,1.034,2-.674,3.263-.2.15-.413.292-.62.437Q562.74,523.371,542.3,537.794c-.749.53-1.525,1.021-2.147,1.437-1.207-.137-1.573-.961-2.046-1.633-1.889-2.69-3.757-5.392-5.63-8.092q-16.429-23.672-32.87-47.339c-2.023-2.907-1.889-2.995.84-4.894q20.529-14.3,41.039-28.63C542.162,448.17,542.862,447.726,543.609,447.23Z" transform="translate(-498.223 -447.23)" fill="#fff"/>
</svg>
