<svg xmlns="http://www.w3.org/2000/svg" width="77.236" height="81.974" viewBox="0 0 77.236 81.974">
  <path id="Path_246" data-name="Path 246" d="M321.231,95.636c.5.333.666.333.833.5,2.5,3.5,5,7.164,7.5,10.663a2.815,2.815,0,0,1,.333.833c-.167,1-1,1.333-1.5,1.666-3,2.166-6.165,4.332-9.164,6.5-4.832,3.332-9.5,6.665-14.329,10.163-.5.333-1,.833-1.666,1.333a13.76,13.76,0,0,0,2.333,3.665,24.836,24.836,0,0,0,2.5,3.332,4.784,4.784,0,0,0,2.166-1.333c6.165-4.165,12.163-8.5,18.161-12.663.167-.167.333-.333.5-.333a.8.8,0,0,1,1.166.167,1.663,1.663,0,0,1,.666.833c2.166,3,4.332,6.165,6.5,9.164a3.642,3.642,0,0,1,.5.833,1.521,1.521,0,0,1-.333,1.833,18.862,18.862,0,0,0-2.166,1.666c-5.5,3.832-11,7.831-16.495,11.663-.666.5-1.166.833-1.833,1.333a46.509,46.509,0,0,0,5.332,7.831c.5-.333,1-.5,1.5-.833,7.5-5.165,15.162-10.5,22.659-15.662,1-.666,2-1.333,2.832-2,1.166.167,1.5,1,2,1.666l5,7.5,1,1.5c1,1.5,1,1.833-.666,2.832-.167.167-.333.333-.5.333-12.163,8.5-24.159,17.161-36.322,25.658a17.454,17.454,0,0,0-1.833,1.333c-1-.167-1.333-.833-1.833-1.5-1.666-2.333-3.332-4.832-5-7.164-9.664-14-19.494-27.991-29.157-42.153-1.833-2.666-1.666-2.666.666-4.332l36.488-25.492C319.9,96.469,320.564,95.969,321.231,95.636Z" transform="translate(-280.665 -95.636)" fill="#b1b3b1"/>
</svg>
