<svg xmlns="http://www.w3.org/2000/svg" width="336.866" height="34.947" viewBox="0 0 336.866 34.947">
  <g id="Group_204" data-name="Group 204" transform="translate(0)">
    <rect id="Rectangle_32" data-name="Rectangle 32" width="5.079" height="33.659" transform="translate(48.521 0.655)" fill="#fff"/>
    <path id="Path_235" data-name="Path 235" d="M544.825,388.029l-10.817,23.644-10.443-23.644h-1.6L516.386,421.7h4.745l3.11-20.339,9.021,20.4H534.6l9.284-20.378,2.74,20.318h4.7l-4.906-33.672Z" transform="translate(-516.386 -387.387)" fill="#fff"/>
    <path id="Path_236" data-name="Path 236" d="M615.169,412.485a10,10,0,0,1-8.438,4.166h-4.856V393.141h4.856a10.008,10.008,0,0,1,8.438,4.166,13.207,13.207,0,0,1,0,15.178m1.548-21.277c-2.762-2.164-5.985-3.171-10.675-3.171h-9.362v33.72h9.362c4.69,0,7.913-1.009,10.675-3.173a18.032,18.032,0,0,0,0-27.376" transform="translate(-452.011 -387.381)" fill="#fff"/>
    <path id="Path_237" data-name="Path 237" d="M636.733,392.811H623.239V400.9H633.29v4.774H623.239v11.249h13.494V421.7H618.16V388.036h18.573Z" transform="translate(-434.788 -387.381)" fill="#fff"/>
    <path id="Path_238" data-name="Path 238" d="M654.974,393.341l-4.121,2.441a7.114,7.114,0,0,0-2.2-2.616,5.14,5.14,0,0,0-2.813-.7,5.192,5.192,0,0,0-3.51,1.2,3.715,3.715,0,0,0-1.395,2.964q0,2.465,3.663,3.967l3.357,1.375a14.342,14.342,0,0,1,5.995,4.043,9.112,9.112,0,0,1,1.9,5.854,10.286,10.286,0,0,1-3.1,7.674,10.633,10.633,0,0,1-7.74,3.052A10.354,10.354,0,0,1,637.773,420a11.959,11.959,0,0,1-3.51-7.3l5.146-1.133a8.739,8.739,0,0,0,1.222,4.1,5.8,5.8,0,0,0,8.522.589,5.505,5.505,0,0,0,1.569-4.034,5.653,5.653,0,0,0-.272-1.8,4.554,4.554,0,0,0-.85-1.5,6.772,6.772,0,0,0-1.494-1.286,14.565,14.565,0,0,0-2.178-1.144l-3.249-1.351q-6.911-2.921-6.91-8.546a8.108,8.108,0,0,1,2.9-6.344,10.477,10.477,0,0,1,7.214-2.573q5.822,0,9.092,5.668" transform="translate(-421.877 -387.673)" fill="#fff"/>
    <rect id="Rectangle_33" data-name="Rectangle 33" width="5.079" height="33.659" transform="translate(246.052 0.655)" fill="#fff"/>
    <path id="Path_239" data-name="Path 239" d="M679.017,404.46h16.047v1.112a22.984,22.984,0,0,1-.892,6.71,14.279,14.279,0,0,1-2.942,5.056,15.242,15.242,0,0,1-11.917,5.272,16.385,16.385,0,0,1-12.092-5.1A17.56,17.56,0,0,1,687.134,389.3a21.246,21.246,0,0,1,6.427,5.231l-3.616,3.463q-4.141-5.511-10.088-5.512a12.049,12.049,0,0,0-8.953,3.681,12.3,12.3,0,0,0-3.618,9.063,12.637,12.637,0,0,0,12.2,12.638,10.143,10.143,0,0,0,6.731-2.528,8.991,8.991,0,0,0,3.333-6.1H679.017Z" transform="translate(-399.487 -387.663)" fill="#fff"/>
    <path id="Path_240" data-name="Path 240" d="M582.325,388.029l-10.817,23.644-10.443-23.644h-1.6L553.886,421.7h4.745l3.11-20.339,9.021,20.4H572.1l9.284-20.378,2.74,20.318h4.7l-4.906-33.672Z" transform="translate(-486.32 -387.387)" fill="#fff"/>
    <path id="Path_241" data-name="Path 241" d="M686.908,388.029V421.7h5.079V398.136l22.64,23.626h1.907V388.042h-5.079v23.391l-22.371-23.4Z" transform="translate(-379.668 -387.387)" fill="#fff"/>
  </g>
</svg>
