<svg xmlns="http://www.w3.org/2000/svg" width="330.1" height="34.6" viewBox="0 0 330.1 34.6">
  <g id="Group_207" data-name="Group 207" transform="translate(-34.6 -69)">
    <rect id="Rectangle_34" data-name="Rectangle 34" width="5" height="33" transform="translate(82.2 69.9)" fill="#b1b3b1"/>
    <path id="Path_252" data-name="Path 252" d="M62.5,69.9,51.9,93,41.7,69.9H40.1l-5.5,33h4.7l3-20,8.9,20h1.3L61.6,83l2.7,19.9h4.6l-4.8-33Z" fill="#b1b3b1"/>
    <path id="Path_253" data-name="Path 253" d="M194.5,93.8a9.707,9.707,0,0,1-8.3,4.1h-4.8v-23h4.8a9.963,9.963,0,0,1,8.3,4.1,12.506,12.506,0,0,1,2.3,7.4,12.289,12.289,0,0,1-2.3,7.4M196,73c-2.7-2.1-5.9-3.1-10.5-3.1h-9.2v33h9.2c4.6,0,7.8-1,10.5-3.1A17.581,17.581,0,0,0,196,73" fill="#b1b3b1"/>
    <path id="Path_254" data-name="Path 254" d="M232.5,74.6H219.3v7.9h9.8v4.7h-9.8v11h13.2v4.7H214.3v-33h18.2Z" fill="#b1b3b1"/>
    <path id="Path_255" data-name="Path 255" d="M263,74.8l-4,2.4a7.547,7.547,0,0,0-2.2-2.6,4.654,4.654,0,0,0-2.8-.7,4.871,4.871,0,0,0-3.4,1.2,3.7,3.7,0,0,0-1.4,2.9q0,2.4,3.6,3.9l3.3,1.3a14.228,14.228,0,0,1,5.9,4,9.3,9.3,0,0,1,1.9,5.7,10.176,10.176,0,0,1-3,7.5,10.405,10.405,0,0,1-7.6,3,10.107,10.107,0,0,1-7.1-2.5,11.646,11.646,0,0,1-3.4-7.2l5-1.1a7.856,7.856,0,0,0,1.2,4,5.723,5.723,0,0,0,8.4.5,5.512,5.512,0,0,0,1.5-4,5.663,5.663,0,0,0-.3-1.8,10.932,10.932,0,0,0-.8-1.5,10.018,10.018,0,0,0-1.5-1.3,10.344,10.344,0,0,0-2.1-1.1L251,86.1c-4.5-1.9-6.8-4.7-6.8-8.4a7.872,7.872,0,0,1,2.8-6.2,10.107,10.107,0,0,1,7.1-2.5,10.66,10.66,0,0,1,8.9,5.8" fill="#b1b3b1"/>
    <rect id="Rectangle_35" data-name="Rectangle 35" width="5" height="33" transform="translate(275.7 69.9)" fill="#b1b3b1"/>
    <path id="Path_256" data-name="Path 256" d="M308.5,85.7h15.7v1.1a21.947,21.947,0,0,1-.9,6.6,14.192,14.192,0,0,1-2.9,5,15.249,15.249,0,0,1-11.7,5.2,15.944,15.944,0,0,1-11.8-5,16.456,16.456,0,0,1-4.9-12,17.073,17.073,0,0,1,17.2-17.2,15.838,15.838,0,0,1,7.2,1.6,23.542,23.542,0,0,1,6.3,5.1l-3.5,3.4q-4.05-5.4-9.9-5.4A12.132,12.132,0,0,0,297,86.6,12.285,12.285,0,0,0,308.9,99a9.909,9.909,0,0,0,6.6-2.5,9.553,9.553,0,0,0,3.3-6H308.5V85.7Z" fill="#b1b3b1"/>
    <path id="Path_257" data-name="Path 257" d="M128.7,69.9,118.1,93,107.9,69.9h-1.6l-5.5,33h4.7l3-20,8.9,20h1.3L127.8,83l2.7,19.9h4.6l-4.8-33Z" fill="#b1b3b1"/>
    <path id="Path_258" data-name="Path 258" d="M335.6,69.9v33h5V79.8l22.2,23.1h1.9v-33h-5V92.8L337.8,69.9Z" fill="#b1b3b1"/>
  </g>
</svg>
