<?xml version="1.0" encoding="utf-8"?>
<!-- Generator: Adobe Illustrator 16.0.0, SVG Export Plug-In . SVG Version: 6.00 Build 0)  -->
<!DOCTYPE svg PUBLIC "-//W3C//DTD SVG 1.1//EN" "http://www.w3.org/Graphics/SVG/1.1/DTD/svg11.dtd">
<svg version="1.1" id="Layer_1" xmlns="http://www.w3.org/2000/svg" xmlns:xlink="http://www.w3.org/1999/xlink" x="0px" y="0px"
	 width="425.2px" height="127px" viewBox="0 148.1 425.2 127" enable-background="new 0 148.1 425.2 127" xml:space="preserve">
<g>
	<g>
		<path fill="#484848" d="M59.103,156.133c-0.17,0.341-3.359,7.398-9.652,21.176c-6.293,13.733-12.161,26.787-17.646,39.033h-2.594
			c-6.081-13.734-11.991-26.915-17.688-39.586c-5.698-12.629-8.802-19.517-9.27-20.623l3.274-1.445
			c0.212,0.596,3.274,7.568,9.227,20.877c5.953,13.31,11.268,25.215,16.03,35.717h0.085c4.72-10.672,10.035-22.705,15.987-35.972
			c5.953-13.266,8.972-20.111,9.142-20.494L59.103,156.133z"/>
		<path fill="#484848" d="M82.063,215.491h-3.614c0-1.786,0-5.018,0.043-9.609c0.042-4.593,0.042-11.226,0.042-19.857
			c0-3.401,0-7.908-0.042-13.436c-0.043-5.528-0.043-11.311-0.043-17.264h3.614c0,4.295,0,9.27-0.042,14.925
			s-0.042,10.29-0.042,13.904c0,9.099,0,16.157,0.042,21.132C82.063,210.262,82.063,213.663,82.063,215.491z"/>
		<path fill="#484848" d="M177.181,215.491h-3.614c0-1.786,0-5.018,0.042-9.609c0.042-4.593,0.042-11.226,0.042-19.857
			c0-3.401,0-7.908-0.042-13.436c-0.042-5.528-0.042-11.311-0.042-17.264h3.614c0,4.295,0,9.27-0.043,14.925
			c-0.042,5.655-0.042,10.29-0.042,13.904c0,9.099,0,16.157,0.042,21.132C177.181,210.262,177.181,213.663,177.181,215.491z"/>
		<path fill="#484848" d="M252.696,185.728c0,4.975-1.147,9.481-3.443,13.479c-2.297,3.997-5.527,7.355-9.609,10.035
			c-3.572,2.211-7.313,3.826-11.268,4.89c-3.955,1.063-8.547,1.53-13.777,1.53c-1.275,0-2.763,0-4.549-0.042
			c-1.786-0.043-3.062-0.043-3.869-0.085c0-1.361,0-4.508,0.042-9.397s0.042-11.778,0.042-20.707c0-5.655,0-11.353-0.042-17.051
			c-0.042-5.74-0.042-10.077-0.042-13.054c0.723-0.042,1.743-0.042,3.019-0.042c1.318,0,2.551,0,3.742,0
			c5.826,0,11.055,0.595,15.69,1.743c4.634,1.147,8.589,2.849,11.948,5.103c4.082,2.679,7.101,6.037,9.1,10.034
			C251.719,176.16,252.696,180.667,252.696,185.728z M249.125,185.728c0-4.55-0.894-8.632-2.723-12.246
			c-1.828-3.614-4.719-6.718-8.674-9.27c-3.273-2.083-6.93-3.614-10.97-4.592c-4.04-0.979-8.675-1.488-13.861-1.488
			c-0.468,0-1.063,0-1.701,0c-0.638,0-1.105,0-1.403,0c0,2.424,0,5.782-0.042,10.077c-0.043,4.295-0.043,8.674-0.043,13.182
			c0,7.738,0,13.988,0.043,18.751c0.042,4.762,0.042,9.014,0.085,12.713c0.51,0,1.021,0,1.573,0s1.063,0,1.531,0
			c4.847,0,9.269-0.425,13.266-1.232s7.526-2.211,10.63-4.125c4.125-2.594,7.229-5.697,9.27-9.396
			C248.104,194.359,249.125,190.235,249.125,185.728z"/>
		<path fill="#484848" d="M279.952,215.491h-3.572c0-1.786,0-5.018,0.043-9.609c0.043-4.593,0.043-11.226,0.043-19.857
			c0-3.401,0-7.908-0.043-13.436c-0.043-5.528-0.043-11.311-0.043-17.264h3.615c0,4.295,0,9.27-0.043,14.925
			s-0.043,10.29-0.043,13.904c0,9.099,0,16.157,0.043,21.132C279.995,210.262,279.952,213.663,279.952,215.491z"/>
		<path fill="#484848" d="M355.807,215.024l-3.273,1.445c-1.021-2.211-2.338-5.145-3.955-8.844
			c-1.615-3.656-3.826-8.632-6.633-14.925h-29.381c-2.637,5.91-4.932,11.013-6.803,15.35c-1.914,4.338-3.146,7.102-3.699,8.334
			l-3.063-1.36c0.979-2.169,4.721-10.375,11.227-24.619c6.463-14.244,11.82-26.107,16.072-35.547h2.594
			c2.891,6.634,7.738,17.519,14.541,32.57C350.153,202.523,354.276,211.707,355.807,215.024z M340.627,189.852
			c-1.912-4.38-4.123-9.396-6.676-15.095c-2.551-5.697-4.762-10.672-6.717-14.925h-0.086c-2.125,4.72-4.465,9.95-6.973,15.647
			c-2.51,5.698-4.635,10.46-6.379,14.372v0.043h26.83V189.852z"/>
		<path fill="#484848" d="M422.946,155.325c0,4.72,0,10.077-0.041,16.115c-0.043,6.038-0.043,10.417-0.043,13.054
			c0,8.504,0,15.478,0.043,20.92c0.041,5.442,0.041,8.334,0.041,8.717l-3.273,1.573c-8.844-11.991-17.646-23.939-26.404-35.845
			c-8.76-11.905-13.734-18.581-14.926-20.069l-0.084,0.042c0,8.037,0.043,18.837,0.084,32.485
			c0.043,13.606,0.086,21.346,0.086,23.131h-3.613c0-0.765,0-3.401,0.041-7.993c0.043-4.593,0.043-10.971,0.043-19.134
			c0-3.274,0-7.781-0.043-13.564c-0.041-5.782-0.041-11.692-0.041-17.73l4.252-2.041c1.402,1.913,6.717,9.1,15.859,21.515
			c9.184,12.416,17.305,23.344,24.406,32.741l0.086-0.043c0-4.592-0.043-13.437-0.129-26.447
			c-0.084-13.012-0.127-22.195-0.127-27.468h3.783V155.325z"/>
	</g>
	<g>
		<path fill="#484848" d="M163.83,253.377v16.838h-2.211v-7.569h-11.311v7.569h-2.211v-16.838h2.211v7.355h11.311v-7.355H163.83z"/>
		<path fill="#484848" d="M173.524,253.377h2.211v16.838h-2.211V253.377z"/>
		<path fill="#484848" d="M201.29,268.301c-1.701,1.403-4.252,2.211-7.143,2.211c-5.868,0-9.567-3.401-9.567-8.674
			s3.657-8.759,9.439-8.759c2.381,0,4.549,0.595,6.335,1.785l-0.851,1.871c-1.743-1.105-3.572-1.615-5.485-1.615
			c-4.38,0-7.144,2.679-7.144,6.676c0,4.081,2.892,6.675,7.441,6.675c1.786,0,3.402-0.382,4.847-1.232v-4.167h-5.74v-1.913h7.909
			v7.143H201.29z"/>
		<path fill="#484848" d="M226.037,253.377v16.838h-2.212v-7.569h-11.31v7.569h-2.211v-16.838h2.211v7.355h11.31v-7.355H226.037z"/>
		<path fill="#484848" d="M237.985,255.29v5.442h10.842v1.913h-10.842v5.613h12.458v1.913h-14.669v-16.838h14.669v1.913h-12.458
			V255.29z"/>
		<path fill="#484848" d="M273.404,255.29h-6.761v14.925h-2.211V255.29h-6.761v-1.913h15.732V255.29L273.404,255.29z"/>
		<path fill="#484848" d="M296.237,255.29h-6.761v14.925h-2.211V255.29h-6.761v-1.913h15.732V255.29L296.237,255.29z"/>
	</g>
	<path fill="#484848" d="M140.273,205.839c-2.211-3.316-5.145-7.823-8.759-13.394c3.912-1.318,7.101-3.359,9.609-6.208
		c2.764-3.146,4.125-6.888,4.125-11.268c0-3.486-0.681-6.591-2.041-9.27c-1.361-2.679-3.274-4.848-5.825-6.548
		c-2.296-1.531-5.145-2.637-8.589-3.274c-3.401-0.638-7.526-0.978-12.416-0.978c-0.723,0-1.616,0-2.721,0
		c-1.106,0-2.296,0-3.487,0.042c0,5.74,0,10.971,0.042,15.69s0.042,8.674,0.042,11.905c0,10.162,0,17.688-0.042,22.578
		c-0.042,4.848-0.042,8.206-0.042,9.992h3.614l-0.085-20.622c3.784,0,6.973-0.128,9.524-0.34c1.701-0.171,3.274-0.426,4.847-0.724
		c4.125,6.336,7.356,11.311,9.609,14.84c2.466,3.827,4.167,6.506,5.145,7.951l3.019-1.956
		C144.823,212.77,142.995,209.964,140.273,205.839z M115.272,157.664c0.723,0,1.233,0,1.445,0c3.317,0,6.335,0.213,9.057,0.595
		c2.721,0.383,5.06,1.021,7.016,1.914c2.891,1.36,5.103,3.273,6.591,5.825c1.488,2.551,2.253,5.527,2.253,8.972
		c0,3.274-0.808,6.08-2.424,8.419s-3.827,4.167-6.59,5.527c-0.851,0.383-1.786,0.766-2.722,1.063
		c-0.34-0.511-0.68-1.021-1.021-1.573c-1.913-2.977-4.422-6.804-7.441-11.523c-2.891-4.507-5.442-8.461-7.696-11.905
		c0.042-4.465,0.042-6.889,0.042-7.313C114.039,157.664,114.549,157.664,115.272,157.664z M116.292,191.723c-0.17,0-0.596,0-1.233,0
		s-1.105,0-1.318,0c0-0.426,0-2.381-0.042-5.825c0-3.487-0.042-6.293-0.042-8.504c0-1.446,0-3.402,0-5.868
		c2.041,3.146,4.082,6.208,6.038,9.227c2.679,4.082,4.89,7.441,6.676,10.163c-0.298,0.042-0.595,0.127-0.936,0.17
		C122.713,191.468,119.651,191.723,116.292,191.723z"/>
</g>
</svg>
