<?xml version="1.0" encoding="utf-8"?>
<!-- Generator: Adobe Illustrator 16.0.0, SVG Export Plug-In . SVG Version: 6.00 Build 0)  -->
<!DOCTYPE svg PUBLIC "-//W3C//DTD SVG 1.1//EN" "http://www.w3.org/Graphics/SVG/1.1/DTD/svg11.dtd">
<svg version="1.1" id="Layer_1" xmlns="http://www.w3.org/2000/svg" xmlns:xlink="http://www.w3.org/1999/xlink" x="0px" y="0px"
	 width="425.2px" height="72.333px" viewBox="0 0 425.2 72.333" enable-background="new 0 0 425.2 72.333" xml:space="preserve">
<g>
	<g>
		<path fill="#484848" d="M60.705,7.736c-0.167,0.338-3.32,7.313-9.541,20.933c-6.221,13.576-12.021,26.48-17.444,38.585h-2.564
			c-6.011-13.576-11.854-26.605-17.485-39.131C8.039,15.639,4.97,8.829,4.507,7.736l3.236-1.429
			c0.209,0.59,3.237,7.481,9.121,20.638c5.885,13.158,11.139,24.926,15.847,35.307h0.083c4.666-10.549,9.92-22.443,15.804-35.558
			c5.884-13.115,8.869-19.881,9.037-20.26L60.705,7.736z"/>
		<path fill="#484848" d="M83.401,66.414h-3.572c0-1.766,0-4.961,0.042-9.5c0.041-4.54,0.041-11.097,0.041-19.629
			c0-3.362,0-7.817-0.041-13.282c-0.042-5.465-0.042-11.182-0.042-17.066h3.572c0,4.246,0,9.164-0.042,14.753
			c-0.042,5.589-0.042,10.172-0.042,13.745c0,8.994,0,15.971,0.042,20.889C83.401,61.244,83.401,64.606,83.401,66.414z"/>
		<path fill="#484848" d="M177.428,66.414h-3.573c0-1.766,0-4.961,0.042-9.5c0.042-4.54,0.042-11.097,0.042-19.629
			c0-3.362,0-7.817-0.042-13.282c-0.042-5.465-0.042-11.182-0.042-17.066h3.573c0,4.246,0,9.164-0.042,14.753
			c-0.042,5.589-0.042,10.172-0.042,13.745c0,8.994,0,15.971,0.042,20.889C177.428,61.244,177.428,64.606,177.428,66.414z"/>
		<path fill="#484848" d="M252.077,36.992c0,4.917-1.134,9.372-3.403,13.324c-2.271,3.951-5.464,7.271-9.499,9.92
			c-3.53,2.186-7.229,3.782-11.139,4.834c-3.91,1.051-8.449,1.513-13.619,1.513c-1.259,0-2.731,0-4.496-0.042
			c-1.766-0.042-3.027-0.042-3.825-0.084c0-1.346,0-4.456,0.042-9.289c0.042-4.833,0.042-11.645,0.042-20.469
			c0-5.592,0-11.223-0.042-16.856c-0.042-5.674-0.042-9.962-0.042-12.904c0.714-0.042,1.722-0.042,2.985-0.042
			c1.302,0,2.521,0,3.698,0c5.759,0,10.928,0.588,15.51,1.723c4.581,1.134,8.491,2.816,11.812,5.044
			c4.035,2.648,7.02,5.968,8.995,9.919C251.112,27.534,252.077,31.989,252.077,36.992z M248.547,36.992
			c0-4.498-0.884-8.534-2.692-12.105c-1.807-3.572-4.665-6.642-8.574-9.164c-3.235-2.059-6.852-3.573-10.844-4.539
			c-3.994-0.968-8.577-1.471-13.703-1.471c-0.462,0-1.051,0-1.682,0s-1.092,0-1.387,0c0,2.397,0,5.716-0.041,9.961
			c-0.042,4.246-0.042,8.574-0.042,13.031c0,7.649,0,13.828,0.042,18.537c0.041,4.707,0.041,8.911,0.083,12.567
			c0.505,0,1.01,0,1.556,0c0.544,0,1.05,0,1.513,0c4.793,0,9.164-0.421,13.113-1.218c3.952-0.798,7.44-2.186,10.509-4.078
			c4.078-2.564,7.146-5.632,9.163-9.289C247.538,45.524,248.547,41.447,248.547,36.992z"/>
		<path fill="#484848" d="M279.02,66.414h-3.531c0-1.766,0-4.961,0.042-9.5c0.043-4.54,0.043-11.097,0.043-19.629
			c0-3.362,0-7.817-0.043-13.282c-0.042-5.465-0.042-11.182-0.042-17.066h3.573c0,4.246,0,9.164-0.042,14.753
			c-0.043,5.589-0.043,10.172-0.043,13.745c0,8.994,0,15.971,0.043,20.889C279.062,61.244,279.02,64.606,279.02,66.414z"/>
		<path fill="#484848" d="M354.004,65.951l-3.235,1.43c-1.009-2.187-2.311-5.086-3.909-8.743c-1.598-3.614-3.782-8.533-6.558-14.753
			h-29.044c-2.605,5.841-4.875,10.887-6.724,15.173c-1.893,4.29-3.111,7.021-3.657,8.24l-3.027-1.347
			c0.968-2.143,4.666-10.256,11.099-24.337c6.388-14.08,11.685-25.807,15.887-35.139h2.564c2.856,6.559,7.649,17.318,14.374,32.196
			C348.416,53.595,352.491,62.673,354.004,65.951z M338.999,41.068c-1.889-4.329-4.075-9.288-6.598-14.921
			c-2.521-5.631-4.708-10.55-6.641-14.754h-0.085c-2.1,4.667-4.415,9.835-6.895,15.467c-2.48,5.634-4.582,10.341-6.306,14.208v0.042
			h26.523V41.068L338.999,41.068z"/>
		<path fill="#484848" d="M420.374,6.938c0,4.666,0,9.962-0.04,15.929c-0.043,5.97-0.043,10.299-0.043,12.905
			c0,8.407,0,15.301,0.043,20.68c0.04,5.379,0.04,8.238,0.04,8.617l-3.236,1.555c-8.742-11.853-17.442-23.664-26.101-35.434
			c-8.659-11.769-13.575-18.369-14.755-19.839l-0.083,0.042c0,7.945,0.042,18.621,0.083,32.112
			c0.042,13.451,0.085,21.102,0.085,22.866h-3.57c0-0.756,0-3.362,0.041-7.901c0.042-4.541,0.042-10.845,0.042-18.915
			c0-3.236,0-7.691-0.042-13.408c-0.041-5.716-0.041-11.559-0.041-17.527L377,6.603c1.384,1.89,6.639,8.995,15.675,21.268
			c9.081,12.273,17.108,23.077,24.127,32.365l0.085-0.042c0-4.539-0.043-13.283-0.128-26.144
			c-0.083-12.862-0.126-21.94-0.126-27.152h3.74V6.938z"/>
	</g>
	<path fill="#484848" d="M140.944,56.872c-2.186-3.277-5.086-7.733-8.659-13.24c3.867-1.303,7.02-3.321,9.499-6.138
		c2.732-3.109,4.078-6.808,4.078-11.138c0-3.447-0.674-6.515-2.018-9.164c-1.346-2.649-3.237-4.792-5.759-6.474
		c-2.269-1.513-5.086-2.606-8.49-3.236c-3.362-0.631-7.439-0.967-12.274-0.967c-0.715,0-1.597,0-2.69,0s-2.269,0-3.447,0.042
		c0,5.674,0,10.845,0.042,15.509c0.042,4.665,0.042,8.574,0.042,11.769c0,10.045,0,17.486-0.042,22.318
		c-0.042,4.793-0.042,8.113-0.042,9.877h3.573l-0.084-20.384c3.741,0,6.893-0.127,9.415-0.336c1.681-0.17,3.236-0.421,4.791-0.716
		c4.078,6.264,7.271,11.181,9.499,14.669c2.438,3.784,4.119,6.431,5.086,7.86l2.984-1.934
		C145.441,63.723,143.635,60.95,140.944,56.872z M116.229,9.25c0.715,0,1.219,0,1.428,0c3.279,0,6.262,0.21,8.953,0.588
		c2.69,0.379,5.002,1.009,6.936,1.892c2.858,1.345,5.044,3.235,6.515,5.758c1.471,2.521,2.227,5.464,2.227,8.87
		c0,3.236-0.798,6.009-2.396,8.322c-1.597,2.313-3.783,4.12-6.514,5.464c-0.842,0.378-1.766,0.756-2.691,1.05
		c-0.336-0.504-0.672-1.009-1.009-1.554c-1.891-2.942-4.371-6.727-7.355-11.392c-2.858-4.455-5.379-8.364-7.607-11.768
		c0.042-4.414,0.042-6.811,0.042-7.229C115.011,9.25,115.515,9.25,116.229,9.25z M117.238,42.918c-0.168,0-0.589,0-1.219,0
		c-0.63,0-1.092,0-1.303,0c0-0.421,0-2.354-0.042-5.757c0-3.447-0.042-6.221-0.042-8.407c0-1.431,0-3.363,0-5.802
		c2.018,3.11,4.035,6.138,5.969,9.122c2.648,4.035,4.834,7.354,6.6,10.046c-0.294,0.042-0.588,0.126-0.925,0.168
		C123.585,42.667,120.558,42.918,117.238,42.918z"/>
</g>
</svg>
