<svg id="_8" data-name="8" xmlns="http://www.w3.org/2000/svg" width="19.063" height="19.021" viewBox="0 0 19.063 19.021">
  <path id="Path_99" data-name="Path 99" d="M593.614,427.195c-.428-.685-.351-.876-.351-.876l1.278-1.855a1.157,1.157,0,0,0-.114-1.51l-2.649-2.631a1.083,1.083,0,0,0-1.426-.088l-1.15.891a1.31,1.31,0,0,0-.264.267c-2.27,3.167.915,8.156,4.841,12.059,3.819,3.8,8.988,7.18,12.108,4.762a1.3,1.3,0,0,0,.234-.239l.9-1.174a1.082,1.082,0,0,0-.1-1.426l-2.648-2.631a1.157,1.157,0,0,0-1.51-.1l-1.848,1.288s-.739.268-4.328-3.3a27.73,27.73,0,0,1-2.559-2.833c-.175-.232-.311-.43-.416-.6" transform="translate(-588.181 -420.007)" fill="#fff"/>
</svg>
