<svg xmlns="http://www.w3.org/2000/svg" width="40.583" height="40.583" viewBox="0 0 40.583 40.583">
  <g id="Group_194" data-name="Group 194" transform="translate(0 3)">
    <g id="Group_193" data-name="Group 193" transform="translate(0 -3)">
      <g id="Group_192" data-name="Group 192">
        <path id="Path_206" data-name="Path 206" d="M20.291,0A20.291,20.291,0,1,0,40.583,20.291,20.314,20.314,0,0,0,20.291,0Zm0,38.892a18.6,18.6,0,1,1,18.6-18.6A18.622,18.622,0,0,1,20.291,38.892Z" fill="#fff"/>
        <path id="Path_207" data-name="Path 207" d="M205.14,157.075,193.3,149.466a.845.845,0,0,0-1.3.711V165.4a.845.845,0,0,0,1.3.711L205.14,158.5a.845.845,0,0,0,0-1.422Zm-11.449,6.771V151.726l9.427,6.06Z" transform="translate(-176.781 -137.495)" fill="#fff"/>
      </g>
    </g>
  </g>
</svg>
